inDegrees=no
num_controls=7
num_derivatives=13
num_iterations=91
num_multipliers=7
num_parameters=0
num_slacks=7
num_states=26
objective=0.333873
objective_accelerations=0.037682
objective_balance=0.001347
objective_effort=0.027447
objective_height=0.265925
objective_ligament=0.001472
solver_duration=943.469663
status=Solve_Succeeded
success=true
DataType=double
version=3
OpenSimVersion=4.5
endheader
time	/jointset/ground_pelvis/pelvis_tilt/value	/jointset/ground_pelvis/pelvis_tx/value	/jointset/ground_pelvis/pelvis_ty/value	/jointset/hip_r/hip_flexion_r/value	/jointset/hip_r/hip_adduction_r/value	/jointset/hip_r/hip_rotation_r/value	/jointset/back/lumbar_extension/value	/jointset/patellofemoral_r/patellar_flexion_r/value	/jointset/knee_r/knee_flexion_r/value	/jointset/knee_r/knee_adduction_r/value	/jointset/knee_r/knee_rotation_r/value	/jointset/ankle_r/ankle_angle_r/value	/jointset/subtalar_r/subtalar_angle_r/value	/jointset/ground_pelvis/pelvis_tilt/speed	/jointset/ground_pelvis/pelvis_tx/speed	/jointset/ground_pelvis/pelvis_ty/speed	/jointset/hip_r/hip_flexion_r/speed	/jointset/hip_r/hip_adduction_r/speed	/jointset/hip_r/hip_rotation_r/speed	/jointset/back/lumbar_extension/speed	/jointset/patellofemoral_r/patellar_flexion_r/speed	/jointset/knee_r/knee_flexion_r/speed	/jointset/knee_r/knee_adduction_r/speed	/jointset/knee_r/knee_rotation_r/speed	/jointset/ankle_r/ankle_angle_r/speed	/jointset/subtalar_r/subtalar_angle_r/speed	/forceset/tau_hip_flexion_r	/forceset/tau_hip_adduction_r	/forceset/tau_hip_rotation_r	/forceset/tau_knee_flexion_r	/forceset/tau_ankle_angle_r	/forceset/tau_subtalar_angle_r	/forceset/tau_lumbar_extension	lambda_cid13_p0	lambda_cid14_p0	lambda_cid14_p1	lambda_cid14_p2	lambda_cid14_p3	lambda_cid14_p4	lambda_cid14_p5	/jointset/ground_pelvis/pelvis_tilt/accel	/jointset/ground_pelvis/pelvis_tx/accel	/jointset/ground_pelvis/pelvis_ty/accel	/jointset/hip_r/hip_flexion_r/accel	/jointset/hip_r/hip_adduction_r/accel	/jointset/hip_r/hip_rotation_r/accel	/jointset/back/lumbar_extension/accel	/jointset/patellofemoral_r/patellar_flexion_r/accel	/jointset/knee_r/knee_flexion_r/accel	/jointset/knee_r/knee_adduction_r/accel	/jointset/knee_r/knee_rotation_r/accel	/jointset/ankle_r/ankle_angle_r/accel	/jointset/subtalar_r/subtalar_angle_r/accel	gamma_cid13_p0	gamma_cid14_p0	gamma_cid14_p1	gamma_cid14_p2	gamma_cid14_p3	gamma_cid14_p4	gamma_cid14_p5
1.5	-0.1118536990389462	0.03736383280684475	0.8142225598084949	0.8379653154643992	-0.2267908607800841	-0.1207571486125146	-0.6258175745374555	0.9442002685364602	0.9442002685364449	-0.03680450316876199	0.1745246179154159	0.3084304235741456	0.1381049843353196	0.5259732731462423	0.2280630160922363	0.5192742887030373	-2.096504954878784	0.001113670475597229	-0.1782628986747599	0.8023441457076412	-1.974902729437086	-1.97490272943709	0.4929420501719411	9.809129817230396e-06	-0.5228476959218884	-0.206837617487772	-0.1734294125992136	0.01546157608498389	0.01772344003473088	-0.2854629157371548	-0.008039869274398105	-0.004396143819992557	0.2197369518937062	-8.923527012659916	-44.599455949294	-8.835626336748454	0.8223633708348632	-1.393639193097657	-627.7032915412037	55.52482851040653	0.1580762002692467	0.5586685598272605	-0.5410056763790815	-0.9964232572562323	-0.2609889091107499	-0.6782470822175516	1.789458648720514	-1.359161648852346	-1.359161648852341	0.453480143466509	-0.02167390957580572	-0.6967118274308085	-0.4602266551546065	1.749657424698148e-07	1.487696698319717e-07	-1.025073063986178e-06	1.567077557904488e-06	1.124546268520938e-08	3.42648798012618e-07	-7.863929559522626e-07
1.51	-0.1065864234663029	0.03967213071779499	0.8193872056206568	0.8169525111603935	-0.2267937135541816	-0.1225732210309322	-0.6177062895560733	0.9243858281292768	0.9243858281292702	-0.0318506178443134	0.1745247045235902	0.3031676191043642	0.1360125248921151	0.52740161952388	0.2335654021278178	0.5135434215195681	-2.105773464936544	-0.001689009354457042	-0.1849721136935414	0.8197959457345171	-1.987711262630081	-1.98771126263008	0.4977844169541844	6.948405306090968e-06	-0.5296293630391866	-0.21160760774788	-0.1657602245292644	0.01369569855439269	0.01786515302709967	-0.2817907504415789	-0.006133344157412768	-0.005148793951464239	0.2127807441756205	-9.961481863440046	-43.70030104692252	-8.851502659564101	0.6494875035286084	-1.446949896765212	-622.6383249881727	55.40246563912847	0.1231921979473899	0.5413497743140313	-0.6057765190999418	-0.8496812500013122	-0.2904648930459205	-0.6700647981594929	1.705504954496428	-1.200618347584122	-1.200618347583405	0.4919096054968601	0.0105902047881172	-0.6562837874199965	-0.478351204519156	1.670631831062471e-07	1.448372612834348e-07	-9.592905051620317e-07	1.534910822441016e-06	6.27965616456014e-09	3.427211747936426e-07	-7.705840206939717e-07
1.52	-0.1013072687615969	0.04203451771887906	0.8244912129050302	0.7958554984818165	-0.2268247046011981	-0.1244569468168275	-0.6094239937194577	0.904451518551554	0.9044515185515508	-0.02684984992005826	0.1745247989962516	0.2978395200367016	0.1338737723476937	0.5283490995589745	0.2388808341190034	0.5071465831453338	-2.11334662979292	-0.004513984108239118	-0.1917935721703645	0.836546316754408	-1.998876563545516	-1.99887656354551	0.5023185701321717	1.13820278710339e-05	-0.5359066154981107	-0.2160962377311987	-0.1580910364593155	0.01192982102380433	0.01800686601942778	-0.2781185851460069	-0.00422681904042643	-0.005901444082930231	0.2058245364575346	-11.00461849684501	-42.80101422723477	-8.865218799499322	0.4738258327963319	-1.512751281777467	-617.5695472148971	55.34397835743566	0.06190293176055806	0.5212777509481018	-0.6741999145321608	-0.6573542169791263	-0.2654478938563188	-0.700695773825901	1.649172847323515	-1.030515193340264	-1.030515193340269	0.3918374226153366	-0.02021504016056788	-0.5958288957559108	-0.403954599796771	1.655166625061344e-07	1.371987478534519e-07	-1.031788832687259e-06	1.432469792230072e-06	1.889692717979508e-08	3.401642916973372e-07	-8.274560063630528e-07
1.53	-0.09602104784174093	0.04444905177079069	0.8295279783094609	0.7746913052269423	-0.2268840075279461	-0.1264098183608709	-0.6009778843210464	0.8844138669925085	0.8844138669925128	-0.02180560461962191	0.1745251918741022	0.2924512338704027	0.1316916375751377	0.5288138345521132	0.2439869284209273	0.5001005595629496	-2.119197461104809	-0.007352030851203616	-0.1987613585084884	0.8525393433649248	-2.008358761272	-2.008358761271991	0.5065108420674341	5.105121781020571e-05	-0.5416608805977613	-0.2202869715189796	-0.1503821827326733	0.010005480083559	0.01818131908891866	-0.274640040841403	-0.002257819331862402	-0.00675134625367538	0.1988147830518923	-12.0480305288475	-41.90560522638832	-8.930980322608818	0.3168905347956107	-1.532754810450039	-612.7108948589172	55.24910501818866	0.02658048870935811	0.4994314840273243	-0.7356279168746976	-0.5047497004214427	-0.2937247196686845	-0.6916532275301516	1.553934633441469	-0.8628587157652328	-0.8628587157647885	0.4297996643199455	0.01382368295392341	-0.5517139589944997	-0.4201489797611254	1.707234330921925e-07	1.256224979869325e-07	-1.251210601958695e-06	1.255362323849939e-06	5.019621807690676e-08	3.348138199813687e-07	-9.615514705174657e-07
1.54	-0.09073261523083072	0.04691347800856404	0.8344911186107109	0.7534774432365231	-0.2269718392531538	-0.1284317344010402	-0.5923759312434251	0.864290236125506	0.8642902361255173	-0.01672006108276264	0.1745255346007277	0.2870081073247223	0.1294688922224055	0.5287914377700076	0.2488592712913482	0.4924215625092399	-2.123280376901802	-0.01021974380025666	-0.205602471395593	0.867715052596473	-2.016072425136996	-2.016072425136984	0.510578217416226	1.351783060087445e-06	-0.5468746913744061	-0.224218353766455	-0.1426733290060309	0.008081139143317144	0.01835577215839631	-0.2711614965368004	-0.0002888196232972397	-0.00760124842441445	0.1918050296462498	-13.08835399820788	-41.01054303694195	-8.995459220426554	0.1582157955770369	-1.560320607374825	-607.8546655585038	55.21134243653214	-0.03552342328838767	0.474527464647526	-0.8007946087972816	-0.3037711139996537	-0.271381135074037	-0.6753610836220589	1.485709371529774	-0.676808421042645	-0.6768084210426447	0.3668581053212613	-0.03808876509840784	-0.487738031154738	-0.3520842917356628	1.74886487538572e-07	1.144476899984753e-07	-1.456271306412422e-06	1.074895161229371e-06	7.977746834572247e-08	3.287940768538357e-07	-1.077825711635434e-06
